#!OML:ASF H:\Terrain\Patient Classification 1\Animal1\Tuesday\Animal1.ASF
:FULLY-SPECIFIED
:DEGREES
734
root 15.4986 16.7599 -12.4288 7.25599 -5.42557 5.37151
lowerback 10.0971 -3.24535 -1.64919
upperback -5.16256 -4.91111 -2.64617
thorax -11.3703 -2.35163 -0.967572
lowerneck -9.3555 0.976525 -6.77881
upperneck -4.0686 1.99325 9.55809
head 0.172063 1.17363 4.45695
rclavicle -3.53278e-014 -1.98785e-014
rhumerus -10.5685 5.03684 12.0752
rradius 22.7305
rwrist -17.6425
rhand -11.1384 16.9798
rfingers 7.12502
rthumb 14.8872 -12.4653
lclavicle -3.53278e-014 -1.98785e-014
lhumerus 2.92759 19.2884 5.22471
lradius 23.9415
lwrist -22.1966
lhand 9.53172 52.4396
lfingers 7.12502
lthumb 34.6821 79.0693
rfemur -15.2327 24.8174 21.5211
rtibia 14.4091
rfoot -11.4063 -41.1775
rtoes 32.1822
lfemur -33.6001 -11.3686 -8.51001
ltibia 43.8486
lfoot 24.5953 -0.437902
ltoes 15.5595
735
root 15.4955 16.7628 -12.4465 7.07061 -5.72612 5.40987
lowerback 10.1642 -3.19829 -1.60966
upperback -5.04692 -4.84498 -2.70709
thorax -11.2884 -2.32641 -1.06715
lowerneck -8.99049 1.00479 -6.87397
upperneck -4.04532 2.02201 9.55397
head 0.111509 1.18124 4.46948
rclavicle -8.00108e-015 2.70347e-014
rhumerus -9.96191 4.89119 12.1836
rradius 22.7686
rwrist -17.3938
rhand -10.0377 16.5594
rfingers 7.12502
rthumb 15.9474 -12.8041
lclavicle -8.00108e-015 2.70347e-014
lhumerus 3.25902 19.6379 5.76152
lradius 23.8831
lwrist -22.4091
lhand 9.4318 51.4758
lfingers 7.12502
lthumb 34.5872 78.1273
rfemur -15.0625 24.9396 21.5419
rtibia 14.324
rfoot -10.9698 -41.06
rtoes 31.7612
lfemur -33.3697 -11.3003 -8.5515
ltibia 43.8008
lfoot 24.7427 0.512968
ltoes 18.4005
736
root 15.4921 16.7575 -12.4656 7.00589 -6.06231 5.33376
lowerback 10.0898 -3.13741 -1.49855
upperback -4.94898 -4.73828 -2.70173
thorax -11.1398 -2.28515 -1.15035
lowerneck -8.62631 1.05011 -6.82785
upperneck -3.98556 2.05616 9.29436
head 0.0656557 1.18788 4.36077
rclavicle -2.08972e-014 2.14687e-014
rhumerus -9.36347 5.64921 12.2916
rradius 22.9287
rwrist -18.2087
rhand -7.70248 15.2717
rfingers 7.12502
rthumb 18.1951 -13.8973
lclavicle -2.08972e-014 2.14687e-014
lhumerus 3.67945 20.8322 6.61631
lradius 23.6697
lwrist -23.4642
lhand 9.34566 51.6975
lfingers 7.12502
lthumb 34.5055 78.3676
rfemur -15.0458 25.1296 21.6167
rtibia 14.1887
rfoot -10.534 -41.026
rtoes 31.0787
lfemur -33.2328 -10.9847 -8.51456
ltibia 43.8151
lfoot 24.6841 0.565437
ltoes 18.2867
737
root 15.49 16.7521 -12.4878 6.95057 -6.31404 5.22574
lowerback 10.002 -3.096 -1.31319
upperback -4.88687 -4.64947 -2.70261
thorax -11.0305 -2.25766 -1.27784
lowerneck -7.96073 1.16227 -6.70807
upperneck -4.03169 2.16558 9.04853
head -0.0738899 1.22454 4.23886
rclavicle -1.91951e-014 -2.10712e-014
rhumerus -8.76635 6.60145 12.3469
rradius 23.173
rwrist -19.2152
rhand -6.77809 14.7833
rfingers 7.12502
rthumb 19.0842 -14.3004
lclavicle -1.91951e-014 -2.10712e-014
lhumerus 4.01784 21.4321 7.34345
lradius 23.5937
lwrist -23.9796
lhand 9.13979 52.2841
lfingers 7.12502
lthumb 34.31 78.9985
rfemur -15.01 25.1802 21.7207
rtibia 14.0003
rfoot -10.4563 -40.8797
rtoes 31.0393
lfemur -33.1771 -10.7038 -8.45473
ltibia 43.8727
lfoot 24.5416 0.026312
ltoes 15.7716
738
root 15.4887 16.7469 -12.5106 6.93736 -6.43828 5.0978
lowerback 9.94547 -3.13509 -1.06515
upperback -4.89637 -4.66615 -2.71236
thorax -11.0293 -2.28472 -1.4261
lowerneck -7.32037 1.3222 -6.56012
upperneck -3.92558 2.3323 8.9529
head -0.164734 1.29257 4.16847
rclavicle 7.69794e-014 3.57812e-014
rhumerus -8.01923 7.10374 12.386
rradius 23.3247
rwrist -19.4797
rhand -7.87916 14.3501
rfingers 7.12502
rthumb 18.0251 -14.8347
lclavicle 7.69794e-014 3.57812e-014
lhumerus 4.01676 20.4999 7.51454
lradius 23.8352
lwrist -23.1836
lhand 8.9097 52.9565
lfingers 7.12502
lthumb 34.0915 79.7199
rfemur -15.0518 25.1654 21.8345
rtibia 13.9112
rfoot -10.0895 -40.7267
rtoes 30.9271
lfemur -33.2392 -10.4998 -8.33436
ltibia 43.9226
lfoot 24.6492 -0.0721398
ltoes 14.7788
739
root 15.4876 16.7434 -12.5281 6.89773 -6.53159 5.16093
lowerback 9.85677 -3.17152 -0.971091
upperback -4.76303 -4.70251 -2.80306
thorax -10.8442 -2.31455 -1.57652
lowerneck -7.46151 1.3662 -6.46662
upperneck -3.55481 2.37075 9.00787
head -0.0220718 1.31687 4.17512
rclavicle 1.42628e-014 5.56597e-015
rhumerus -7.40364 7.0017 12.3856
rradius 23.3859
rwrist -19.3727
rhand -8.45715 14.4201
rfingers 7.12502
rthumb 17.4689 -14.815
lclavicle 1.42628e-014 5.56597e-015
lhumerus 4.42079 20.5423 7.9741
lradius 23.7487
lwrist -23.1596
lhand 8.66382 53.3424
lfingers 7.12502
lthumb 33.8579 80.1575
rfemur -15.0984 25.2342 21.7421
rtibia 13.9059
rfoot -10.1053 -40.6325
rtoes 31.2209
lfemur -33.2138 -10.3728 -8.42694
ltibia 43.9278
lfoot 24.7522 0.107658
ltoes 15.1396
740
root 15.4863 16.7447 -12.5404 6.82184 -6.67079 5.45246
lowerback 9.72187 -3.15512 -1.1135
upperback -4.62405 -4.70297 -2.92988
thorax -10.6085 -2.31219 -1.64329
lowerneck -7.56498 1.33047 -6.49776
upperneck -3.29547 2.31617 9.10552
head 0.0841091 1.29499 4.21941
rclavicle -2.82647e-014 1.03368e-014
rhumerus -6.90926 7.20234 12.3922
rradius 23.6389
rwrist -19.9927
rhand -7.87647 14.6312
rfingers 7.12502
rthumb 18.0277 -14.5533
lclavicle -2.82647e-014 1.03368e-014
lhumerus 5.05188 21.6235 8.87186
lradius 23.4077
lwrist -24.2206
lhand 8.3175 52.518
lfingers 7.12502
lthumb 33.5289 79.4051
rfemur -15.0903 25.388 21.3985
rtibia 13.8582
rfoot -10.3942 -40.6374
rtoes 31.4731
lfemur -33.103 -10.3368 -8.77211
ltibia 43.9264
lfoot 24.5207 0.210008
ltoes 14.9417
741
root 15.4839 16.7456 -12.5539 6.70145 -6.86718 5.78125
lowerback 9.67433 -3.133 -1.38297
upperback -4.59555 -4.71535 -3.00219
thorax -10.5333 -2.30325 -1.57148
lowerneck -7.14888 1.38322 -6.52623
upperneck -3.14704 2.36221 9.07772
head 0.0544315 1.31037 4.21017
rclavicle -4.60932e-014 4.77083e-015
rhumerus -6.20243 7.37071 12.4375
rradius 23.8518
rwrist -20.333
rhand -7.81973 14.0283
rfingers 7.12502
rthumb 18.0823 -15.1511
lclavicle -4.60932e-014 4.77083e-015
lhumerus 5.11942 21.4897 9.37136
lradius 23.4785
lwrist -24.3376
lhand 7.83105 51.0846
lfingers 7.12502
lthumb 33.0664 78.0708
rfemur -15.0902 25.4768 21.0528
rtibia 13.8979
rfoot -10.2335 -40.7096
rtoes 31.0227
lfemur -32.9466 -10.3304 -9.1448
ltibia 43.9052
lfoot 24.1316 0.584633
ltoes 14.9282
742
root 15.4801 16.7482 -12.5693 6.58655 -7.12638 5.83133
lowerback 9.6319 -3.10432 -1.37685
upperback -4.51941 -4.67373 -3.03336
thorax -10.4254 -2.28589 -1.61979
lowerneck -6.77345 1.47997 -6.55339
upperneck -2.94398 2.46603 9.1023
head 0.0439385 1.35631 4.2216
rclavicle -1.26849e-014 -1.86858e-014
rhumerus -5.39198 6.85145 12.324
rradius 23.7915
rwrist -19.7973
rhand -7.81346 13.7838
rfingers 7.12502
rthumb 18.0883 -15.3951
lclavicle -1.26849e-014 -1.86858e-014
lhumerus 5.32949 21.6494 9.9063
lradius 23.5179
lwrist -24.6245
lhand 7.15096 50.4673
lfingers 7.12502
lthumb 32.4194 77.5883
rfemur -15.0994 25.4952 21.0451
rtibia 14.005
rfoot -10.2037 -40.5932
rtoes 31.1884
lfemur -32.8114 -10.2091 -9.20158
ltibia 43.9021
lfoot 23.9989 0.965195
ltoes 15.5087
743
root 15.4765 16.7516 -12.5843 6.43384 -7.35679 5.89682
lowerback 9.61663 -3.09547 -1.38745
upperback -4.42886 -4.65978 -3.04943
thorax -10.3157 -2.2798 -1.63614
lowerneck -6.62683 1.55533 -6.70761
upperneck -2.56755 2.5507 9.23989
head 0.129156 1.40083 4.30445
rclavicle -8.07563e-016 -4.01545e-014
rhumerus -4.51257 6.61086 12.1683
rradius 23.7856
rwrist -19.7166
rhand -7.03168 14.4505
rfingers 7.12502
rthumb 18.8404 -14.657
lclavicle -8.07563e-016 -4.01545e-014
lhumerus 5.84683 23.0068 10.8191
lradius 23.183
lwrist -26.0472
lhand 6.86421 50.0673
lfingers 7.12502
lthumb 32.1464 77.2438
rfemur -14.9837 25.5967 21.0188
rtibia 13.9668
rfoot -10.6778 -40.4225
rtoes 31.9869
lfemur -32.6606 -10.1001 -9.2871
ltibia 43.9221
lfoot 24.03 1.09272
ltoes 15.4069
744
root 15.4736 16.7484 -12.5959 6.34122 -7.58515 6.00967
lowerback 9.53365 -3.07016 -1.51282
upperback -4.37835 -4.63439 -3.02072
thorax -10.1964 -2.25899 -1.54533
lowerneck -6.66807 1.55132 -6.81822
upperneck -2.01191 2.52361 9.2717
head 0.318004 1.39341 4.34433
rclavicle -5.04168e-014 -7.95139e-016
rhumerus -3.66945 6.76933 12.1371
rradius 23.9279
rwrist -20.0046
rhand -6.53709 15.2016
rfingers 7.12502
rthumb 19.316 -13.859
lclavicle -5.04168e-014 -7.95139e-016
lhumerus 5.98339 23.3149 11.4047
lradius 23.1135
lwrist -26.4531
lhand 7.23273 49.7076
lfingers 7.12502
lthumb 32.4972 76.8125
rfemur -14.8832 25.8534 20.8787
rtibia 13.7837
rfoot -10.9665 -40.4455
rtoes 32.2282
lfemur -32.5531 -10.0914 -9.39542
ltibia 43.9599
lfoot 23.9021 1.59913
ltoes 16.1573
